# xmcd
#
# Track frame offsets:
#	150
#	12537
#	26592
#	37583
#	49658
#	61625
#	72843
#	82029
#	93476
#	104055
#	116700
#	129116
#	140162
#	151338
#	163214
#	171205
#	181962
#	194658
#	208526
#	220652
#	231436
#	240122
#	251586
#	263297
#	276728
#
# Disc length: 3851 seconds
#
# Revision: 1
# Processed by: cddbd v1.5.2PL0 Copyright (c) Steve Scherf et al.
# Submitted via: audiograbber 1.83.01
#
DISCID=620f0919
DTITLE=Various Artist - Sweethearts and Stolen Kisses - Love Songs [CD1]
DYEAR=1900
DGENRE=Pop
TTITLE0=Matt Monro - Portrait Of My Love
TTITLE1=Elvis Presley - Are You Lonesome Tonight
TTITLE2=Roy Orbison - Only The Lonely
TTITLE3=Paul Anka - Puppy Love
TTITLE4=Brenda Lee - I'm Sorry
TTITLE5=Cliff Richard and The Shadows - Fell In Love With You
TTITLE6=The Everly Brothers - When Will I Be Loved
TTITLE7=Connie Francis - My Heart Has A Mind Of It's Own
TTITLE8=Michael Holliday - Starry Eyed
TTITLE9=Buddy Holly - Raining In My Heart
TTITLE10=Sam Cooke - You Send Me
TTITLE11=Anthony Newley - Why
TTITLE12=Julie London - I'm In The Mood For Love
TTITLE13=The Platters - Smoke Gets In Your Eyes
TTITLE14=Billy Fury - That's Love
TTITLE15=The Fleetwoods - Come Softly To Me
TTITLE16=The Chordettes - Born To Be With You
TTITLE17=Doris Day - A Very Precious Love
TTITLE18=Pat Boone - April Love
TTITLE19=Tab Hunter - Young Love
TTITLE20=Johnny Burnette - You're Sixteen
TTITLE21=Bobby Darin - Dream Lover
TTITLE22=Jimmy Young - Unchained Melody
TTITLE23=The Four Aces - Love Is A Many Spendoured Thing
TTITLE24=The Shirelles - Will You Love Me Tomorrow
EXTD=
EXTT0=
EXTT1=
EXTT2=
EXTT3=
EXTT4=
EXTT5=
EXTT6=
EXTT7=
EXTT8=
EXTT9=
EXTT10=
EXTT11=
EXTT12=
EXTT13=
EXTT14=
EXTT15=
EXTT16=
EXTT17=
EXTT18=
EXTT19=
EXTT20=
EXTT21=
EXTT22=
EXTT23=
EXTT24=
PLAYORDER=
